# xmcd
#
# Track frame offsets:
#	150
#	36402
#	83005
#	94364
#	115848
#	146489
#	169282
#	204502
#
# Disc length: 2995 seconds
#
# Revision: 1
# Processed by: cddbd v1.5.2PL0 Copyright (c) Steve Scherf et al.
# Submitted via: audiograbber 1.83.01
#
DISCID=6c0bb108
DTITLE=Grateful Dead - 79-09-05 Madison Square Garden, New York NY
DYEAR=1900
DGENRE=
TTITLE0=Mississippi Half-Step
TTITLE1=Franklin's Tower
TTITLE2=Mama Tried
TTITLE3=Mexicali Blues
TTITLE4=Peggy-O
TTITLE5=Cassidy
TTITLE6=Loser
TTITLE7=Promised Land
EXTD=
EXTT0=
EXTT1=
EXTT2=
EXTT3=
EXTT4=
EXTT5=
EXTT6=
EXTT7=
PLAYORDER=
